<svg xmlns="http://www.w3.org/2000/svg" width="333.868" height="310" viewBox="0 0 333.86792452830184 309.99999999999994"><path fill="none" stroke="#000" d="M50 260h280M50 236h280M50 212h280M50 188h280M50 164h280M50 140h280M50 116h280M50 92h280M50 68h280M50 44h280M50 20h280" opacity=".3"/><path fill="none" stroke="#000" d="M84.34 266v-6" stroke-width="2"/><path fill="#f9685d" d="M65.85 260v-72h36.98v72"/><path fill="#f9685d" stroke="#000" d="M137.17 266v-6" stroke-width="2"/><path fill="#1fab54" d="M118.679 260V116h36.981v144"/><path fill="#1fab54" stroke="#000" d="M190 266v-6" stroke-width="2"/><path fill="#11accd" d="M171.509 260V80h36.982v180"/><path fill="#11accd" stroke="#000" d="M242.83 266v-6" stroke-width="2"/><path fill="#ca337c" d="M224.34 260V152h36.981v108"/><path fill="#ca337c" stroke="#000" d="M295.66 266v-6" stroke-width="2"/><path fill="#aa87ff" d="M277.17 260V44h36.981v216"/><path fill="#aa87ff" stroke="#000" d="M50 260h280M50 260V20" stroke-width="2"/></svg>
